<mxfile host="app.diagrams.net" modified="2023-06-23T09:10:33.291Z" agent="Mozilla/5.0 (Windows NT 10.0; Win64; x64) AppleWebKit/537.36 (KHTML, like Gecko) Chrome/113.0.0.0 Safari/537.36" etag="FAlafxYZ3YfIyzdsDhzm" version="21.3.8" type="github">
  <diagram name="第 1 页" id="RQnGt7B-5TgbvrB8x5Jw">
    <mxGraphModel dx="794" dy="443" grid="0" gridSize="10" guides="1" tooltips="1" connect="1" arrows="1" fold="1" page="1" pageScale="1" pageWidth="827" pageHeight="1169" math="0" shadow="0">
      <root>
        <mxCell id="0" />
        <mxCell id="1" parent="0" />
        <mxCell id="H8VAIQo5yhwd4_tt57j2-6" style="edgeStyle=orthogonalEdgeStyle;rounded=0;orthogonalLoop=1;jettySize=auto;html=1;entryX=0.5;entryY=0;entryDx=0;entryDy=0;" edge="1" parent="1" source="H8VAIQo5yhwd4_tt57j2-1" target="H8VAIQo5yhwd4_tt57j2-2">
          <mxGeometry relative="1" as="geometry" />
        </mxCell>
        <mxCell id="H8VAIQo5yhwd4_tt57j2-1" value="需求分析" style="rounded=1;whiteSpace=wrap;html=1;" vertex="1" parent="1">
          <mxGeometry x="160" y="140" width="70" height="30" as="geometry" />
        </mxCell>
        <mxCell id="H8VAIQo5yhwd4_tt57j2-7" style="edgeStyle=orthogonalEdgeStyle;rounded=0;orthogonalLoop=1;jettySize=auto;html=1;entryX=0.5;entryY=0;entryDx=0;entryDy=0;" edge="1" parent="1" source="H8VAIQo5yhwd4_tt57j2-2" target="H8VAIQo5yhwd4_tt57j2-3">
          <mxGeometry relative="1" as="geometry" />
        </mxCell>
        <mxCell id="H8VAIQo5yhwd4_tt57j2-2" value="设计" style="rounded=1;whiteSpace=wrap;html=1;" vertex="1" parent="1">
          <mxGeometry x="160" y="210" width="70" height="30" as="geometry" />
        </mxCell>
        <mxCell id="H8VAIQo5yhwd4_tt57j2-8" style="edgeStyle=orthogonalEdgeStyle;rounded=0;orthogonalLoop=1;jettySize=auto;html=1;entryX=0.5;entryY=0;entryDx=0;entryDy=0;" edge="1" parent="1" source="H8VAIQo5yhwd4_tt57j2-3" target="H8VAIQo5yhwd4_tt57j2-4">
          <mxGeometry relative="1" as="geometry" />
        </mxCell>
        <mxCell id="H8VAIQo5yhwd4_tt57j2-3" value="实现" style="rounded=1;whiteSpace=wrap;html=1;" vertex="1" parent="1">
          <mxGeometry x="160" y="280" width="70" height="30" as="geometry" />
        </mxCell>
        <mxCell id="H8VAIQo5yhwd4_tt57j2-9" style="edgeStyle=orthogonalEdgeStyle;rounded=0;orthogonalLoop=1;jettySize=auto;html=1;entryX=0.5;entryY=0;entryDx=0;entryDy=0;" edge="1" parent="1" source="H8VAIQo5yhwd4_tt57j2-4" target="H8VAIQo5yhwd4_tt57j2-5">
          <mxGeometry relative="1" as="geometry" />
        </mxCell>
        <mxCell id="H8VAIQo5yhwd4_tt57j2-4" value="测试" style="rounded=1;whiteSpace=wrap;html=1;" vertex="1" parent="1">
          <mxGeometry x="160" y="350" width="70" height="30" as="geometry" />
        </mxCell>
        <mxCell id="H8VAIQo5yhwd4_tt57j2-5" value="发布" style="rounded=1;whiteSpace=wrap;html=1;" vertex="1" parent="1">
          <mxGeometry x="160" y="420" width="70" height="30" as="geometry" />
        </mxCell>
        <mxCell id="H8VAIQo5yhwd4_tt57j2-19" style="edgeStyle=orthogonalEdgeStyle;rounded=0;orthogonalLoop=1;jettySize=auto;html=1;entryX=0.75;entryY=0;entryDx=0;entryDy=0;curved=1;" edge="1" parent="1" source="H8VAIQo5yhwd4_tt57j2-11" target="H8VAIQo5yhwd4_tt57j2-13">
          <mxGeometry relative="1" as="geometry">
            <Array as="points">
              <mxPoint x="651" y="188" />
            </Array>
          </mxGeometry>
        </mxCell>
        <mxCell id="H8VAIQo5yhwd4_tt57j2-11" value="需求分析" style="rounded=1;whiteSpace=wrap;html=1;" vertex="1" parent="1">
          <mxGeometry x="478" y="173" width="70" height="30" as="geometry" />
        </mxCell>
        <mxCell id="H8VAIQo5yhwd4_tt57j2-13" value="设计" style="rounded=1;whiteSpace=wrap;html=1;" vertex="1" parent="1">
          <mxGeometry x="598" y="266" width="70" height="30" as="geometry" />
        </mxCell>
        <mxCell id="H8VAIQo5yhwd4_tt57j2-21" style="edgeStyle=orthogonalEdgeStyle;rounded=0;orthogonalLoop=1;jettySize=auto;html=1;entryX=1;entryY=0.5;entryDx=0;entryDy=0;" edge="1" parent="1" source="H8VAIQo5yhwd4_tt57j2-15" target="H8VAIQo5yhwd4_tt57j2-17">
          <mxGeometry relative="1" as="geometry" />
        </mxCell>
        <mxCell id="H8VAIQo5yhwd4_tt57j2-23" style="edgeStyle=orthogonalEdgeStyle;rounded=0;orthogonalLoop=1;jettySize=auto;html=1;curved=1;exitX=1;exitY=0.5;exitDx=0;exitDy=0;startArrow=classic;startFill=1;endArrow=none;endFill=0;" edge="1" parent="1" source="H8VAIQo5yhwd4_tt57j2-15" target="H8VAIQo5yhwd4_tt57j2-13">
          <mxGeometry relative="1" as="geometry">
            <Array as="points">
              <mxPoint x="662" y="407" />
            </Array>
          </mxGeometry>
        </mxCell>
        <mxCell id="H8VAIQo5yhwd4_tt57j2-15" value="实现" style="rounded=1;whiteSpace=wrap;html=1;" vertex="1" parent="1">
          <mxGeometry x="560" y="392" width="70" height="30" as="geometry" />
        </mxCell>
        <mxCell id="H8VAIQo5yhwd4_tt57j2-22" style="edgeStyle=orthogonalEdgeStyle;rounded=0;orthogonalLoop=1;jettySize=auto;html=1;entryX=0.5;entryY=1;entryDx=0;entryDy=0;curved=1;exitX=0.5;exitY=0;exitDx=0;exitDy=0;" edge="1" parent="1" source="H8VAIQo5yhwd4_tt57j2-17" target="H8VAIQo5yhwd4_tt57j2-18">
          <mxGeometry relative="1" as="geometry">
            <Array as="points">
              <mxPoint x="384" y="392" />
            </Array>
          </mxGeometry>
        </mxCell>
        <mxCell id="H8VAIQo5yhwd4_tt57j2-25" style="edgeStyle=orthogonalEdgeStyle;rounded=0;orthogonalLoop=1;jettySize=auto;html=1;entryX=0.5;entryY=0;entryDx=0;entryDy=0;curved=1;dashed=1;" edge="1" parent="1" source="H8VAIQo5yhwd4_tt57j2-17" target="H8VAIQo5yhwd4_tt57j2-15">
          <mxGeometry relative="1" as="geometry">
            <Array as="points">
              <mxPoint x="445" y="372" />
              <mxPoint x="595" y="372" />
            </Array>
          </mxGeometry>
        </mxCell>
        <mxCell id="H8VAIQo5yhwd4_tt57j2-17" value="测试" style="rounded=1;whiteSpace=wrap;html=1;" vertex="1" parent="1">
          <mxGeometry x="393" y="392" width="70" height="30" as="geometry" />
        </mxCell>
        <mxCell id="H8VAIQo5yhwd4_tt57j2-24" style="edgeStyle=orthogonalEdgeStyle;rounded=0;orthogonalLoop=1;jettySize=auto;html=1;entryX=0;entryY=0.5;entryDx=0;entryDy=0;curved=1;exitX=0.5;exitY=0;exitDx=0;exitDy=0;" edge="1" parent="1" source="H8VAIQo5yhwd4_tt57j2-18" target="H8VAIQo5yhwd4_tt57j2-11">
          <mxGeometry relative="1" as="geometry" />
        </mxCell>
        <mxCell id="H8VAIQo5yhwd4_tt57j2-18" value="发布" style="rounded=1;whiteSpace=wrap;html=1;" vertex="1" parent="1">
          <mxGeometry x="349" y="266" width="70" height="30" as="geometry" />
        </mxCell>
      </root>
    </mxGraphModel>
  </diagram>
</mxfile>
